# xmcd
# 
# Track frame offsets:
#     150
#     22389
#     36095
#     52683
#     69643
#     86538
#     100167
#     109868
#     124054
#     138110
#     160313
#     174590
#     191106
#     215948
# 
# Disc length: 3101
# 
# Revision: 0
# Processed by: cddbd v1.5.2PL0 Copyright (c) Steve Scherf et al.
# Submitted via: BonkEnc v1.0.15
# 
DISCID=c90c1b0e
DTITLE=Charlie West - Country and Blues
DYEAR=0
DGENRE=Country
TTITLE0=City of New Orleans
TTITLE1=San Francisco bay blues
TTITLE2=Cadillac Ranch
TTITLE3=Mama don't let your baby...
TTITLE4=Tulsa Time
TTITLE5=When you need me
TTITLE6=Oh Suzanna
TTITLE7=King of the road
TTITLE8=A good hearted woman
TTITLE9=Amazing grace
TTITLE10=Dust my blues
TTITLE11=Achy breaky heart
TTITLE12=Someday after a smile
TTITLE13=Rider in the sky (ghost)
EXTD=
EXTT0=
EXTT1=
EXTT2=
EXTT3=
EXTT4=
EXTT5=
EXTT6=
EXTT7=
EXTT8=
EXTT9=
EXTT10=
EXTT11=
EXTT12=
EXTT13=
PLAYORDER=
